<svg xmlns="http://www.w3.org/2000/svg" width="40" height="40" viewBox="0 0 40 40">
  <metadata><?xpacket begin="﻿" id="W5M0MpCehiHzreSzNTczkc9d"?>
<x:xmpmeta xmlns:x="adobe:ns:meta/" x:xmptk="Adobe XMP Core 5.6-c138 79.159824, 2016/09/14-01:09:01        ">
   <rdf:RDF xmlns:rdf="http://www.w3.org/1999/02/22-rdf-syntax-ns#">
      <rdf:Description rdf:about=""/>
   </rdf:RDF>
</x:xmpmeta>
                                                                                                    
                                                                                                    
                                                                                                    
                                                                                                    
                                                                                                    
                                                                                                    
                                                                                                    
                                                                                                    
                                                                                                    
                                                                                                    
                                                                                                    
                                                                                                    
                                                                                                    
                                                                                                    
                                                                                                    
                                                                                                    
                                                                                                    
                                                                                                    
                                                                                                    
                                                                                                    
                           
<?xpacket end="w"?></metadata>
<defs>
    <style>
      .cls-1 {
        fill: #909090;
        fill-rule: evenodd;
      }
    </style>
  </defs>
  <path id="user" class="cls-1" d="M1235.47,35.6c-3.19,0-5.78-3.1-5.78-6.93s2.59-6.662,5.78-6.662,5.79,2.836,5.79,6.662S1238.67,35.6,1235.47,35.6Zm-9,9.369a2.225,2.225,0,0,1-1.76-.664,1.981,1.981,0,0,1,.11-1.673l0.49-1.115a23.017,23.017,0,0,1,2.89-4.779,2.2,2.2,0,0,1,2.8-.48,7.428,7.428,0,0,1,1.32,1.174,4.306,4.306,0,0,0,2.89,1.007h0.9a4.3,4.3,0,0,0,2.88-1.007,8.245,8.245,0,0,1,1.31-1.2,2.019,2.019,0,0,1,2.61.507,20.085,20.085,0,0,1,2.76,4.834l0.5,1.093a2.018,2.018,0,0,1,.13,1.671,1.972,1.972,0,0,1-1.64.632h-18.19Z" transform="translate(-1215.5 -13.531)"/>
</svg>
