<svg xmlns="http://www.w3.org/2000/svg" width="14.406" height="14.407" viewBox="0 0 14.406 14.407">
  <metadata><?xpacket begin="﻿" id="W5M0MpCehiHzreSzNTczkc9d"?>
<x:xmpmeta xmlns:x="adobe:ns:meta/" x:xmptk="Adobe XMP Core 5.6-c138 79.159824, 2016/09/14-01:09:01        ">
   <rdf:RDF xmlns:rdf="http://www.w3.org/1999/02/22-rdf-syntax-ns#">
      <rdf:Description rdf:about=""/>
   </rdf:RDF>
</x:xmpmeta>
                                                                                                    
                                                                                                    
                                                                                                    
                                                                                                    
                                                                                                    
                                                                                                    
                                                                                                    
                                                                                                    
                                                                                                    
                                                                                                    
                                                                                                    
                                                                                                    
                                                                                                    
                                                                                                    
                                                                                                    
                                                                                                    
                                                                                                    
                                                                                                    
                                                                                                    
                                                                                                    
                           
<?xpacket end="w"?></metadata>
<defs>
    <style>
      .cls-1 {
        fill: #f4b70a;
        fill-rule: evenodd;
      }
    </style>
  </defs>
  <path id="phone.svg" class="cls-1" d="M38.759,583.862l-1.025,1.025a1.884,1.884,0,0,1-.736.3,12.09,12.09,0,0,1-12.2-12.227,1.9,1.9,0,0,1,.3-0.7l1.025-1.025a1.711,1.711,0,0,1,1.6-.378l0.216,0.072a2.024,2.024,0,0,1,1.17,1.237l0.516,1.892a1.857,1.857,0,0,1-.424,1.621l-0.684.684a7.268,7.268,0,0,0,5.111,5.112l0.684-.684a1.856,1.856,0,0,1,1.62-.425l1.892,0.517a2.029,2.029,0,0,1,1.237,1.169l0.072,0.219A1.714,1.714,0,0,1,38.759,583.862Z" transform="translate(-24.813 -570.781)"/>
</svg>
