<svg xmlns="http://www.w3.org/2000/svg" width="16" height="14" viewBox="0 0 16 14">
  <metadata><?xpacket begin="﻿" id="W5M0MpCehiHzreSzNTczkc9d"?>
<x:xmpmeta xmlns:x="adobe:ns:meta/" x:xmptk="Adobe XMP Core 5.6-c138 79.159824, 2016/09/14-01:09:01        ">
   <rdf:RDF xmlns:rdf="http://www.w3.org/1999/02/22-rdf-syntax-ns#">
      <rdf:Description rdf:about=""/>
   </rdf:RDF>
</x:xmpmeta>
                                                                                                    
                                                                                                    
                                                                                                    
                                                                                                    
                                                                                                    
                                                                                                    
                                                                                                    
                                                                                                    
                                                                                                    
                                                                                                    
                                                                                                    
                                                                                                    
                                                                                                    
                                                                                                    
                                                                                                    
                                                                                                    
                                                                                                    
                                                                                                    
                                                                                                    
                                                                                                    
                           
<?xpacket end="w"?></metadata>
<defs>
    <style>
      .cls-1 {
        fill: #666;
        fill-rule: evenodd;
      }
    </style>
  </defs>
  <path id="experience.svg" class="cls-1" d="M72.28,339.412h1.44v1.647H81s-0.118-3.671-.16-4.821c-0.039-1.092-.419-1.767-1.6-1.767H76.674c-0.4-.772-0.826-1.6-0.957-1.857A0.809,0.809,0,0,0,74.773,332H71.227a0.809,0.809,0,0,0-.943.614c-0.132.254-.56,1.085-0.957,1.857H66.76c-1.181,0-1.556.675-1.6,1.767S65,341.059,65,341.059h7.28v-1.647Zm-1.16-5.834a0.56,0.56,0,0,1,.653-0.425h2.454a0.56,0.56,0,0,1,.653.425l0.46,0.893H70.66Zm2.6,9.951H72.28v-1.647H65.4s0.1,1.481.16,2.737A1.278,1.278,0,0,0,67,346H79a1.28,1.28,0,0,0,1.439-1.381c0.07-1.292.16-2.737,0.16-2.737H73.72v1.647Z" transform="translate(-65 -332)"/>
</svg>
