<svg xmlns="http://www.w3.org/2000/svg" width="11.25" height="17.031" viewBox="0 0 11.25 17.031">
  <metadata><?xpacket begin="﻿" id="W5M0MpCehiHzreSzNTczkc9d"?>
<x:xmpmeta xmlns:x="adobe:ns:meta/" x:xmptk="Adobe XMP Core 5.6-c138 79.159824, 2016/09/14-01:09:01        ">
   <rdf:RDF xmlns:rdf="http://www.w3.org/1999/02/22-rdf-syntax-ns#">
      <rdf:Description rdf:about=""/>
   </rdf:RDF>
</x:xmpmeta>
                                                                                                    
                                                                                                    
                                                                                                    
                                                                                                    
                                                                                                    
                                                                                                    
                                                                                                    
                                                                                                    
                                                                                                    
                                                                                                    
                                                                                                    
                                                                                                    
                                                                                                    
                                                                                                    
                                                                                                    
                                                                                                    
                                                                                                    
                                                                                                    
                                                                                                    
                                                                                                    
                           
<?xpacket end="w"?></metadata>
<defs>
    <style>
      .cls-1 {
        fill: #444;
        fill-rule: evenodd;
      }
    </style>
  </defs>
  <path id="delete.svg" class="cls-1" d="M1289.95,325.829h-8.07a1.54,1.54,0,0,0-1.54,1.539l0.83,8.86a1.54,1.54,0,0,0,1.54,1.539h6.54a1.54,1.54,0,0,0,1.54-1.539l0.7-8.86A1.54,1.54,0,0,0,1289.95,325.829Zm-6.09,9.243a0.765,0.765,0,1,1-1.53,0v-6.933a0.765,0.765,0,1,1,1.53,0v6.933h0Zm2.7,0a0.77,0.77,0,0,1-1.54,0v-6.933a0.77,0.77,0,1,1,1.54,0v6.933Zm2.69,0a0.77,0.77,0,0,1-1.54,0v-6.933a0.77,0.77,0,1,1,1.54,0v6.933Zm-7.78-10.013,9.31-2.4a0.963,0.963,0,0,0-.48-1.866l-2.86.737a1.159,1.159,0,0,0-1.24-.476l-1.12.289a1.146,1.146,0,0,0-.86,1.015l-3.23.834A0.963,0.963,0,1,0,1281.47,325.059Z" transform="translate(-1280.25 -320.75)"/>
</svg>
