<svg xmlns="http://www.w3.org/2000/svg" width="18" height="12" viewBox="0 0 18 12">
  <metadata><?xpacket begin="﻿" id="W5M0MpCehiHzreSzNTczkc9d"?>
<x:xmpmeta xmlns:x="adobe:ns:meta/" x:xmptk="Adobe XMP Core 5.6-c138 79.159824, 2016/09/14-01:09:01        ">
   <rdf:RDF xmlns:rdf="http://www.w3.org/1999/02/22-rdf-syntax-ns#">
      <rdf:Description rdf:about=""/>
   </rdf:RDF>
</x:xmpmeta>
                                                                                                    
                                                                                                    
                                                                                                    
                                                                                                    
                                                                                                    
                                                                                                    
                                                                                                    
                                                                                                    
                                                                                                    
                                                                                                    
                                                                                                    
                                                                                                    
                                                                                                    
                                                                                                    
                                                                                                    
                                                                                                    
                                                                                                    
                                                                                                    
                                                                                                    
                                                                                                    
                           
<?xpacket end="w"?></metadata>
<defs>
    <style>
      .cls-1 {
        fill: #f4b70a;
        fill-rule: evenodd;
      }
    </style>
  </defs>
  <path id="mail.svg" class="cls-1" d="M40.535,520.375a0.6,0.6,0,0,0-.323.1l-7.744,5.443a0.919,0.919,0,0,1-.544.166,0.948,0.948,0,0,1-.553-0.168l-7.508-5.261a0.69,0.69,0,0,0-.4-0.142,0.441,0.441,0,0,0-.463.461v8.077a1.088,1.088,0,0,0,1.183.954H39.839A1.061,1.061,0,0,0,41,529.046v-8.2A0.445,0.445,0,0,0,40.535,520.375Zm-16.822-1.634,7.556,5.215a1.088,1.088,0,0,0,.655.21,1.133,1.133,0,0,0,.62-0.186l7.645-5.335,0.01-.007A0.326,0.326,0,0,0,40.062,518h-16.1a0.489,0.489,0,0,0-.438.224,0.4,0.4,0,0,0,.18.508Z" transform="translate(-23 -518)"/>
</svg>
