<svg xmlns="http://www.w3.org/2000/svg" width="10.22" height="10.219" viewBox="0 0 10.22 10.219">
  <metadata><?xpacket begin="﻿" id="W5M0MpCehiHzreSzNTczkc9d"?>
<x:xmpmeta xmlns:x="adobe:ns:meta/" x:xmptk="Adobe XMP Core 5.6-c138 79.159824, 2016/09/14-01:09:01        ">
   <rdf:RDF xmlns:rdf="http://www.w3.org/1999/02/22-rdf-syntax-ns#">
      <rdf:Description rdf:about=""/>
   </rdf:RDF>
</x:xmpmeta>
                                                                                                    
                                                                                                    
                                                                                                    
                                                                                                    
                                                                                                    
                                                                                                    
                                                                                                    
                                                                                                    
                                                                                                    
                                                                                                    
                                                                                                    
                                                                                                    
                                                                                                    
                                                                                                    
                                                                                                    
                                                                                                    
                                                                                                    
                                                                                                    
                                                                                                    
                                                                                                    
                           
<?xpacket end="w"?></metadata>
<defs>
    <style>
      .cls-1 {
        fill: #444;
        fill-rule: evenodd;
      }
    </style>
  </defs>
  <path id="icon_close" class="cls-1" d="M1299.42,286.593l9.17-9.173m-9.17,9.695a0.522,0.522,0,0,1-.37-0.154,0.529,0.529,0,0,1,0-.738l9.17-9.173a0.524,0.524,0,0,1,.74,0,0.512,0.512,0,0,1,0,.739l-9.17,9.172A0.522,0.522,0,0,1,1299.42,287.115Zm0-9.695,9.17,9.173m0,0.522a0.522,0.522,0,0,1-.37-0.154l-9.17-9.172a0.53,0.53,0,0,1,0-.739,0.524,0.524,0,0,1,.74,0l9.17,9.173a0.529,0.529,0,0,1,0,.738A0.505,0.505,0,0,1,1308.59,287.115Z" transform="translate(-1298.91 -276.906)"/>
</svg>
