<svg xmlns="http://www.w3.org/2000/svg" width="12.25" height="12.219" viewBox="0 0 12.25 12.219">
  <metadata><?xpacket begin="﻿" id="W5M0MpCehiHzreSzNTczkc9d"?>
<x:xmpmeta xmlns:x="adobe:ns:meta/" x:xmptk="Adobe XMP Core 5.6-c138 79.159824, 2016/09/14-01:09:01        ">
   <rdf:RDF xmlns:rdf="http://www.w3.org/1999/02/22-rdf-syntax-ns#">
      <rdf:Description rdf:about=""/>
   </rdf:RDF>
</x:xmpmeta>
                                                                                                    
                                                                                                    
                                                                                                    
                                                                                                    
                                                                                                    
                                                                                                    
                                                                                                    
                                                                                                    
                                                                                                    
                                                                                                    
                                                                                                    
                                                                                                    
                                                                                                    
                                                                                                    
                                                                                                    
                                                                                                    
                                                                                                    
                                                                                                    
                                                                                                    
                                                                                                    
                           
<?xpacket end="w"?></metadata>
<defs>
    <style>
      .cls-1 {
        fill: #666;
        fill-rule: evenodd;
      }
    </style>
  </defs>
  <path id="edit.svg" class="cls-1" d="M908.2,569.585a0.821,0.821,0,0,0-1.162,0l-0.291.291-4.068,4.07v0l-0.128.128s-0.409.412-1.332,3.39c-0.006.021-.013,0.042-0.019,0.063-0.017.053-.033,0.107-0.05,0.162l-0.045.148c-0.013.042-.025,0.084-0.038,0.127-0.029.1-.059,0.2-0.089,0.3a1.172,1.172,0,0,0-.045.916,1.2,1.2,0,0,0,.913-0.045l0.3-.089,0.132-.04,0.14-.043,0.171-.053,0.049-.015a12.047,12.047,0,0,0,3.387-1.334h0l0,0,0.131-.131,0.009,0.009,4.068-4.071h0l0.291-.291a0.823,0.823,0,0,0,0-1.163Zm-2.642,7.447-0.013.009-0.01.006-0.011.007-0.011.007a9.467,9.467,0,0,1-1.5.639l-0.363.128-1.371-1.371c0.045-.129.088-0.253,0.129-0.366a9.311,9.311,0,0,1,.638-1.5,0.036,0.036,0,0,1,0-.009l0.008-.013a0.035,0.035,0,0,1,.006-0.009,0.085,0.085,0,0,1,.009-0.014l0.1-.1,2.484,2.486Zm7.291-7.447-2.324-2.326a0.823,0.823,0,0,0-1.163,0l-0.581.582a0.821,0.821,0,0,0,0,1.162l2.325,2.327a0.821,0.821,0,0,0,1.162,0l0.581-.582A0.823,0.823,0,0,0,912.848,569.585Z" transform="translate(-900.844 -567.031)"/>
</svg>
