<svg xmlns="http://www.w3.org/2000/svg" width="17" height="16" viewBox="0 0 17 16">
  <metadata><?xpacket begin="﻿" id="W5M0MpCehiHzreSzNTczkc9d"?>
<x:xmpmeta xmlns:x="adobe:ns:meta/" x:xmptk="Adobe XMP Core 5.6-c138 79.159824, 2016/09/14-01:09:01        ">
   <rdf:RDF xmlns:rdf="http://www.w3.org/1999/02/22-rdf-syntax-ns#">
      <rdf:Description rdf:about=""/>
   </rdf:RDF>
</x:xmpmeta>
                                                                                                    
                                                                                                    
                                                                                                    
                                                                                                    
                                                                                                    
                                                                                                    
                                                                                                    
                                                                                                    
                                                                                                    
                                                                                                    
                                                                                                    
                                                                                                    
                                                                                                    
                                                                                                    
                                                                                                    
                                                                                                    
                                                                                                    
                                                                                                    
                                                                                                    
                                                                                                    
                           
<?xpacket end="w"?></metadata>
<defs>
    <style>
      .cls-1 {
        fill: #fff;
        fill-rule: evenodd;
      }
    </style>
  </defs>
  <path id="calendar.svg" class="cls-1" d="M241.339,200.06h-2.123v-0.534a0.531,0.531,0,1,0-1.062,0v0.534h-5.308v-0.534a0.531,0.531,0,1,0-1.062,0v0.534h-2.123a2.636,2.636,0,0,0-2.654,2.669v9.61a2.636,2.636,0,0,0,2.654,2.669h11.678a2.636,2.636,0,0,0,2.654-2.669v-9.61A2.636,2.636,0,0,0,241.339,200.06Zm-13.271,2.669a1.638,1.638,0,0,1,1.593-1.6h2.123v0.533a0.531,0.531,0,1,0,1.062,0v-0.533h5.308v0.533a0.531,0.531,0,1,0,1.062,0v-0.533h2.123a1.637,1.637,0,0,1,1.592,1.6v1.6H228.068v-1.6Zm14.863,9.61a1.637,1.637,0,0,1-1.592,1.6H229.661a1.638,1.638,0,0,1-1.593-1.6V205.4h14.863v6.941Zm-12.208,0a0.962,0.962,0,0,0,.743-0.321,1.038,1.038,0,0,0,0-1.5,1.023,1.023,0,0,0-1.487,0,0.975,0.975,0,0,0-.318.748,1.157,1.157,0,0,0,.318.747A0.962,0.962,0,0,0,230.723,212.339Zm3.184,0a0.962,0.962,0,0,0,.744-0.321,1.038,1.038,0,0,0,0-1.5,1.023,1.023,0,0,0-1.487,0,1.038,1.038,0,0,0,0,1.5A0.962,0.962,0,0,0,233.907,212.339Zm0-3.2a0.961,0.961,0,0,0,.744-0.32,1.038,1.038,0,0,0,0-1.5,1.023,1.023,0,0,0-1.487,0,1.038,1.038,0,0,0,0,1.5A0.961,0.961,0,0,0,233.907,209.135Zm3.185,3.2a1.092,1.092,0,0,0,1.062-1.068,0.975,0.975,0,0,0-.318-0.748,1.023,1.023,0,0,0-1.487,0,1.038,1.038,0,0,0,0,1.5A0.96,0.96,0,0,0,237.092,212.339Zm0-3.2a0.961,0.961,0,0,0,.744-0.32,0.971,0.971,0,0,0,.318-0.747,1.159,1.159,0,0,0-.318-0.748,1.023,1.023,0,0,0-1.487,0,1.038,1.038,0,0,0,0,1.5A0.959,0.959,0,0,0,237.092,209.135Zm3.185,3.2a0.959,0.959,0,0,0,.743-0.321,1.035,1.035,0,0,0,0-1.5,1.022,1.022,0,0,0-1.486,0,0.975,0.975,0,0,0-.318.748,1.157,1.157,0,0,0,.318.747A0.96,0.96,0,0,0,240.277,212.339Zm0-3.2a0.958,0.958,0,0,0,.743-0.32,0.969,0.969,0,0,0,.319-0.747,1.156,1.156,0,0,0-.319-0.748,1.022,1.022,0,0,0-1.486,0,1.038,1.038,0,0,0,0,1.5A0.959,0.959,0,0,0,240.277,209.135Z" transform="translate(-227 -199)"/>
</svg>
